<?xml version="1.0" encoding="utf-8"?>
<!-- Generator: Adobe Illustrator 25.2.0, SVG Export Plug-In . SVG Version: 6.00 Build 0)  -->
<svg version="1.1" id="Layer_1" xmlns="http://www.w3.org/2000/svg" xmlns:xlink="http://www.w3.org/1999/xlink" x="0px" y="0px"
	 width="239.7px" height="55.3px" viewBox="0 0 239.7 55.3" style="enable-background:new 0 0 239.7 55.3;" xml:space="preserve">
<style type="text/css">
	.st0{fill:#FFFFFF;}
</style>
<path class="st0" d="M45.6,9.4h11.6v26.9h27.3V46H45.6V9.4z M86.8,9.4v36.7h10.9V18.7h22.7v7.2H99.5L120.1,46h16.3l-13.1-12.3
	c0,0,5.9,1.2,7.3-6.7V15.9c0,0-1-6.5-10.2-6.5H86.8z M136.4,9.4V46H148V21l21.1,25h17.6V9.4h-11.4v25.8L154.5,9.4H136.4z
	 M189.3,11.8c0,1.4,1.1,2.6,2.6,2.6c1.4,0,2.6-1.2,2.6-2.6s-1.1-2.6-2.6-2.6C190.5,9.3,189.3,10.4,189.3,11.8z M189.8,11.8
	c0-1.2,0.9-2.2,2.1-2.2c1.2,0,2.1,1,2.1,2.2s-0.9,2.2-2.1,2.2S189.8,13.1,189.8,11.8z M190.9,13.3h0.5V12h0.4l0.8,1.3h0.5l-0.8-1.3
	c0.5,0,0.8-0.4,0.8-0.8c0-0.6-0.3-0.8-1-0.8H191L190.9,13.3L190.9,13.3z M191.4,10.7h0.6c0.3,0,0.6,0.1,0.6,0.4
	c0,0.4-0.2,0.5-0.6,0.5h-0.6V10.7z"/>
</svg>
