<?xml version="1.0" encoding="utf-8"?>
<!-- Generator: Adobe Illustrator 25.2.0, SVG Export Plug-In . SVG Version: 6.00 Build 0)  -->
<svg version="1.1" id="Layer_1" xmlns="http://www.w3.org/2000/svg" xmlns:xlink="http://www.w3.org/1999/xlink" x="0px" y="0px"
	 width="225.9px" height="135.1px" viewBox="0 0 225.9 135.1" style="enable-background:new 0 0 225.9 135.1;" xml:space="preserve"
	>
<style type="text/css">
	.st0{fill:#FFFFFF;}
</style>
<path class="st0" d="M0.2,39.9h17.6v40.8h41.4v14.7h-59V39.9z M62.7,39.9v55.6h16.5V54h34.4v10.9H81.9L113,95.5h24.7l-19.9-18.6
	c0,0,8.9,1.8,11.1-10.2v-17c0,0-1.5-9.9-15.5-9.9H62.7z M137.8,39.9v55.5h17.6V57.5l32,37.9h26.7V39.9h-17.3v39l-31.7-39H137.8z
	 M218,43.5c0,2.1,1.7,3.9,3.9,3.9c2.1,0,3.9-1.8,3.9-3.9c0-2.1-1.7-3.9-3.9-3.9C219.8,39.7,218,41.4,218,43.5z M218.8,43.5
	c0-1.8,1.4-3.3,3.2-3.3c1.8,0,3.2,1.5,3.2,3.3c0,1.8-1.4,3.3-3.2,3.3S218.8,45.5,218.8,43.5z M220.4,45.8h0.8v-2h0.6l1.2,2h0.8
	l-1.2-2c0.8,0,1.2-0.6,1.2-1.2c0-0.9-0.5-1.2-1.5-1.2h-1.7v4.4H220.4z M221.2,41.9h0.9c0.5,0,0.9,0.2,0.9,0.6c0,0.6-0.3,0.8-0.9,0.8
	h-0.9V41.9z"/>
</svg>
